<svg width="466" height="691" viewBox="0 0 466 691" fill="none" xmlns="http://www.w3.org/2000/svg">
<path fill-rule="evenodd" clip-rule="evenodd" d="M233.913 0.51954C221.5 1.64009 218.812 2.01194 217.575 2.77663C216.942 3.16747 216.425 3.25544 216.425 2.97255C216.425 2.68966 214.514 3.14848 212.178 3.99215C209.843 4.83681 206.821 5.74244 205.464 6.00634C204.107 6.27023 202.421 6.96495 201.717 7.54972C201.012 8.13348 200.437 8.32141 200.437 7.96655C200.437 7.61169 199.313 8.05852 197.939 8.95916C196.565 9.85979 195.441 10.2506 195.441 9.8268C195.441 9.40397 194.541 9.87179 193.442 10.8664C192.343 11.861 191.443 12.3108 191.443 11.866C191.443 11.4212 190.544 11.871 189.445 12.8656C188.346 13.8602 187.446 14.31 187.446 13.8652C187.446 13.4204 186.547 13.8702 185.448 14.8648C184.349 15.8594 183.449 16.3252 183.449 15.8994C183.449 15.4725 181.463 16.752 179.034 18.7432C176.606 20.7334 174.295 22.3618 173.898 22.3618C170.955 22.3618 147.688 44.184 142.724 51.6C141.343 53.6622 139.872 55.3485 139.452 55.3485C139.033 55.3485 137.313 57.4857 135.631 60.0966C133.948 62.7086 131.236 66.2981 129.604 68.0754C127.972 69.8517 126.348 72.2138 125.997 73.3243C125.644 74.4339 124.539 75.7804 123.539 76.3151C122.54 76.8499 120.145 79.6608 118.216 82.5616C116.288 85.4625 113.576 89.055 112.191 90.5444C110.805 92.0348 109.022 94.181 108.228 95.3145C107.435 96.4471 105.149 99.144 103.148 101.308C101.146 103.471 99.5097 105.71 99.5097 106.284C99.5097 106.858 99.06 107.328 98.5104 107.328C97.9608 107.328 97.5111 108.002 97.5111 108.827C97.5111 109.652 97.1004 110.326 96.5998 110.326C96.0981 110.326 93.6019 113.25 91.0528 116.824C88.5036 120.397 85.9914 123.321 85.4688 123.321C84.9472 123.321 84.5205 123.775 84.5205 124.33C84.5205 125.355 81.2278 129.463 76.2764 134.612C74.7655 136.183 73.5284 137.66 73.5284 137.892C73.5284 138.125 72.742 139.167 71.7797 140.208C56.7075 156.523 50.7568 162.885 44.0496 169.854C23.6953 191.001 17.2659 198.461 10.3639 208.935C7.51897 213.252 5.10971 217.683 5.00879 218.783C4.90886 219.883 4.1504 222.357 3.324 224.281C2.49759 226.205 1.29647 230.859 0.65493 234.624C-0.313372 240.307 -0.239426 242.848 1.08762 249.618C1.96698 254.1 3.21908 259.117 3.87061 260.766C4.52215 262.415 5.11572 264.102 5.19066 264.515C5.26661 264.927 5.44048 265.489 5.57738 265.764C5.71428 266.039 5.92213 266.601 6.03804 267.014C7.11627 270.84 14.474 286.004 17.5158 290.668C22.5821 298.437 24.6136 301.786 25.476 303.79C25.9587 304.912 27.1218 306.468 28.0612 307.248C29.0005 308.027 30.1277 309.583 30.5674 310.705C31.006 311.828 38.1539 320.959 46.4509 330.997C54.7489 341.036 61.537 349.54 61.537 349.895C61.537 350.25 62.6612 352.016 64.0352 353.818C65.4092 355.62 66.5334 357.518 66.5334 358.038C66.5334 358.557 67.2409 359.57 68.1053 360.287C68.9697 361.005 70.6565 363.368 71.8526 365.538C73.0487 367.708 75.6958 372.462 77.7334 376.101C81.0849 382.085 83.5732 386.879 84.0208 388.215C84.4435 389.477 86.609 393.861 87.4774 395.212C88.007 396.037 89.8336 400.085 91.5354 404.209C93.2382 408.332 95.0399 412.605 95.5395 413.705C97.5041 418.025 103.493 434.768 103.5 435.96C103.504 436.655 103.923 438.004 104.433 438.959C107.571 444.835 111.883 463.714 113.163 477.179C114.09 486.931 113.416 506.726 111.971 512.165C109.636 520.953 108.501 541.744 110.207 544.467C110.615 545.119 110.982 546.102 111.024 546.651C111.257 549.7 112.86 556.058 114.087 558.798C114.864 560.53 115.498 562.241 115.498 562.601C115.498 562.961 116.347 565.142 117.383 567.448C118.419 569.754 120.178 573.666 121.291 576.14C122.404 578.614 123.361 580.972 123.419 581.379C123.476 581.786 124.422 583.586 125.52 585.377C126.619 587.169 127.773 589.362 128.085 590.253C128.688 591.968 130.797 595.961 136.483 606.144C141.374 614.905 141.565 615.201 145.477 620.122C149.063 624.635 149.64 625.499 152.815 631.119C156.519 637.674 180.977 666.104 182.914 666.104C183.12 666.104 185.237 668.121 187.616 670.585C189.996 673.05 192.506 675.074 193.192 675.083C193.88 675.093 194.441 675.55 194.441 676.1C194.441 676.649 195.116 677.099 195.94 677.099C196.765 677.099 197.439 677.537 197.439 678.073C197.439 679.032 202.8 682.238 204.062 682.032C204.418 681.974 204.986 682.32 205.321 682.801C206.126 683.95 217.412 688.931 220.504 689.5C221.833 689.745 223.146 690.023 223.42 690.118C227.577 691.556 242.647 688.475 249.791 684.725C252.54 683.282 278.377 662.057 278.393 661.228C278.4 660.886 280.086 658.795 282.14 656.582C284.195 654.37 287.674 650.35 289.872 647.65C292.071 644.949 295.15 641.361 296.714 639.677C298.277 637.993 300.698 634.929 302.093 632.867C303.487 630.806 305.018 629.118 305.494 629.118C305.971 629.118 306.361 628.749 306.361 628.298C306.361 627.846 308.722 624.989 311.607 621.948C314.492 618.908 318.655 614.442 320.857 612.024C323.06 609.605 326.657 606 328.851 604.011C331.046 602.023 335.774 597.271 339.359 593.453C345.623 586.78 381.218 556.503 384.098 555.397C384.867 555.102 387.589 552.777 390.146 550.23C397.351 543.058 401.416 540.37 406.115 539.675C411.518 538.876 416.237 536.255 423.276 530.142C437.587 517.717 448.766 505.355 452.755 497.543C454.404 494.315 456.036 491.449 456.381 491.174C457.817 490.031 463.334 475.535 464.318 470.318C467.439 453.763 464.213 431.576 455.831 411.961C454.951 409.901 454.204 407.877 454.171 407.462C454.138 407.047 453.537 406.033 452.836 405.208C451.747 403.928 450.234 400.935 449.805 399.211C449.737 398.936 448.858 396.912 447.852 394.712C446.844 392.513 444.994 388.465 443.739 385.716C441.335 380.452 440.119 377.959 433.254 364.225C424.762 347.235 423.552 344.689 422.803 342.233C422.384 340.859 421.477 339.06 420.786 338.235C420.097 337.41 418.966 334.936 418.276 332.737C417.585 330.538 416.536 328.131 415.946 327.388C415.354 326.646 414.789 325.487 414.69 324.812C414.592 324.139 413.072 320.604 411.314 316.958C409.556 313.311 408.124 309.972 408.131 309.538C408.138 309.103 407.531 308.068 406.78 307.239C406.03 306.409 405.212 304.607 404.962 303.232C404.714 301.859 403.599 298.939 402.487 296.744C399.716 291.279 396.684 284.266 395.793 281.258C395.385 279.883 394.731 278.309 394.337 277.759C393.944 277.21 392.581 273.836 391.308 270.262C389.099 264.063 387.388 259.913 383.191 250.575C382.155 248.269 381.307 245.751 381.307 244.981C381.307 244.211 380.675 242.275 379.904 240.678C376.726 234.104 374.312 228.322 374.312 227.285C374.312 226.678 373.638 224.878 372.815 223.285C371.991 221.692 371.183 219.509 371.019 218.434C370.855 217.359 370.216 215.87 369.599 215.126C368.981 214.383 368.154 212.427 367.759 210.78C367.364 209.134 366.715 207.338 366.317 206.788C365.919 206.238 364.782 203.089 363.792 199.791C362.803 196.492 361.562 193.231 361.034 192.544C360.508 191.857 360.447 191.294 360.899 191.294C361.351 191.294 361.181 190.754 360.522 190.094C359.862 189.435 359.322 188.339 359.322 187.66C359.322 186.982 358.798 185.159 358.157 183.612C357.516 182.065 356.954 180.498 356.908 180.131C356.862 179.766 356.487 179.128 356.075 178.716C355.662 178.303 355.325 177.007 355.325 175.833C355.325 174.661 354.904 173.273 354.388 172.751C353.872 172.229 353.29 170.582 353.093 169.091C352.897 167.6 352.419 166.063 352.032 165.675C351.645 165.288 351.328 164.327 351.328 163.539C351.328 162.752 350.713 160.69 349.961 158.958C349.209 157.226 347.797 153.109 346.823 149.811C345.849 146.512 344.683 142.913 344.231 141.814C343.781 140.714 342.669 137.116 341.763 133.817C340.857 130.518 339.715 127.392 339.226 126.87C338.737 126.347 338.338 124.736 338.338 123.288C338.338 121.84 338.001 120.318 337.588 119.906C337.175 119.494 336.837 118.856 336.835 118.49C336.832 117.815 335.187 112.152 332.867 104.829C332.171 102.63 331.043 98.8061 330.359 96.3321C329.676 93.8581 328.749 90.9343 328.302 89.8347C327.854 88.7351 326.75 85.3615 325.847 82.3377C324.943 79.3139 323.778 75.9403 323.256 74.8407C322.735 73.7412 322.132 71.9419 321.918 70.8423C321.704 69.7428 320.603 66.701 319.471 64.082C318.339 61.4641 317.429 59.215 317.448 59.084C317.746 57.0289 307.35 36.0213 304.592 33.1075C303.161 31.5951 302.352 30.3586 302.796 30.3586C303.241 30.3586 301.899 28.2214 299.815 25.6105C295.67 20.4156 286.375 11.0323 286.375 12.0429C286.375 12.3908 285.588 12.0239 284.626 11.2282C279.916 7.32881 261.294 1.65108 250.401 0.793424C246.828 0.511537 243.456 0.172676 242.906 0.0397289C242.357 -0.0942173 238.31 0.121699 233.913 0.51954ZM425.702 363.379C427.633 367.252 427.657 367.89 425.869 367.89C425.098 367.89 424.668 367.362 424.916 366.718C425.163 366.072 424.671 364.967 423.822 364.263C422.972 363.557 422.277 363.287 422.277 363.662C422.277 364.036 421.8 364.048 421.218 363.688C420.548 363.274 420.824 362.528 421.967 361.662C422.963 360.907 423.856 360.275 423.953 360.258C424.05 360.24 424.836 361.645 425.702 363.379Z" fill="url(#paint0_linear_37_6)"/>
<defs>
<linearGradient id="paint0_linear_37_6" x1="232.744" y1="0" x2="232.744" y2="690.479" gradientUnits="userSpaceOnUse">
<stop stop-color="#301E31"/>
<stop offset="0.185" stop-color="#857D7D"/>
<stop offset="0.395" stop-color="#AF9F7B"/>
<stop offset="0.57" stop-color="#325F61"/>
<stop offset="0.725" stop-color="#603C62"/>
<stop offset="1"/>
</linearGradient>
</defs>
</svg>
